<svg width="600" height="600" viewBox="0 0 600 600" fill="none" xmlns="http://www.w3.org/2000/svg">
<rect x="5" y="5" width="590" height="590" rx="295" fill="#001E2B"/>
<rect x="5" y="5" width="590" height="590" rx="295" stroke="url(#paint0_linear_207_916)" stroke-width="10"/>
<path fill-rule="evenodd" clip-rule="evenodd" d="M309.64 445.112L305.454 492H293.362L288.711 445.112C232.434 404.722 204.064 337.407 211.04 265.914C211.04 265.914 215.691 222.739 245.922 180.493C276.153 138.247 300.804 109 300.804 109C300.804 109 335.287 154.96 354.29 180.493C385.385 222.275 388.242 265.914 388.242 265.914C388.242 265.914 397.543 314.195 373.359 368.512C349.174 422.828 309.64 445.112 309.64 445.112ZM289.303 430.429C286.977 426.715 298.943 245.952 298.943 245.952C298.943 245.952 313.488 427.179 310.232 430.429C306.976 433.679 301.395 436 300 436C298.605 436 291.628 434.143 289.303 430.429Z" fill="#00ED64"/>
<defs>
<linearGradient id="paint0_linear_207_916" x1="300" y1="0" x2="300" y2="600" gradientUnits="userSpaceOnUse">
<stop stop-color="#00A206"/>
<stop offset="1" stop-color="#004F0D"/>
</linearGradient>
</defs>
</svg>
